# xmcd
#
# Track frame offsets:
# 187
# 12840
# 22162
# 32227
# 45787
# 59157
# 69505
# 80365
# 92050
# 101247
# 113902
# 125437
# 137595
# 148690
# 160860
# 174512
#
# Disc length: 2504 seconds
#
#
# Revision: 2
# Processed by: cddbd v1.5.1PL2 Copyright (c) Steve Scherf et al.
# Submitted via: FreeRIP 2.942 
#
DISCID=da09c610
DTITLE=Loretta Lynn - Loretta Lynn Country's Favorite Daughter
DYEAR=1900
DGENRE=
TTITLE0=Crazy
TTITLE1=Wine, Women and Song
TTITLE2=You Ain't Woman Enough to Take My Man
TTITLE3=Coal Miner's Daughter
TTITLE4=Release Me (And let me love again)
TTITLE5=Beautiful, Unhappy Home
TTITLE6=Fool #1
TTITLE7=I Don't Wanna Play House
TTITLE8=Your Squaw is On the Warpath
TTITLE9=Behind Closed Doors
TTITLE10=Satin Sheets
TTITLE11=Married Ladies
TTITLE12=You're Gonna Catch Heaven
TTITLE13=It'll Be Open Season on You
TTITLE14=Bye Bye, Love
TTITLE15=Feelings
EXTD=
EXTT0=
EXTT1=
EXTT2=
EXTT3=
EXTT4=
EXTT5=
EXTT6=
EXTT7=
EXTT8=
EXTT9=
EXTT10=
EXTT11=
EXTT12=
EXTT13=
EXTT14=
EXTT15=
PLAYORDER=
